Coordinates
version=1
nRows=11
nColumns=40
inDegrees=yes

Units are S.I. units (second, meters, Newtons, ...)
Angles are in degrees.

endheader
time	pelvis_tilt	pelvis_list	pelvis_rotation	pelvis_tx	pelvis_ty	pelvis_tz	hip_flexion_r	hip_adduction_r	hip_rotation_r	knee_angle_r	knee_angle_r_beta	ankle_angle_r	subtalar_angle_r	mtp_angle_r	hip_flexion_l	hip_adduction_l	hip_rotation_l	knee_angle_l	knee_angle_l_beta	ankle_angle_l	subtalar_angle_l	mtp_angle_l	lumbar_extension	lumbar_bending	lumbar_rotation	arm_flex_r	arm_add_r	arm_rot_r	elbow_flex_r	pro_sup_r	wrist_flex_r	wrist_dev_r	arm_flex_l	arm_add_l	arm_rot_l	elbow_flex_l	pro_sup_l	wrist_flex_l	wrist_dev_l
     43.88528571	     -3.51382984	     -4.88574015	      6.26931383	      0.98601493	      0.93073263	      0.47634813	      8.61475957	      4.37191354	    -15.15446636	     14.73301910	     14.73301910	     11.61137315	     -3.90128836	     -3.49611373	     34.67040393	     -7.58344201	      2.13795351	     34.30930761	     34.30930761	     10.60848523	    -17.11615946	     13.14655837	     -8.90778902	      4.28377906	      2.50074777	     26.32266240	    -16.77305369	     -5.91352645	     76.52478933	     44.82189269	      0.00000000	      0.00000000	      3.45361738	     -7.25281101	      7.52125232	     19.64581906	     45.22624577	      0.00000000	      0.00000000
     43.89807143	     -3.63735793	     -4.76399413	      6.47407737	      0.98452508	      0.93041202	      0.47568801	      8.23670875	      4.23104992	    -15.33550808	     14.63984051	     14.63984051	     11.95887242	     -3.78857763	     -3.57296103	     34.56667818	     -6.94708079	      2.22384688	     29.97820370	     29.97820370	     10.63651596	    -15.38356591	     12.82016052	     -8.84330936	      4.15751383	      2.33660650	     28.45691270	    -16.69066337	     -6.12113552	     79.07583903	     44.76104152	      0.00000000	      0.00000000	      2.22415443	     -7.24220946	      7.75917278	     19.24960201	     45.14608518	      0.00000000	      0.00000000
     43.91085714	     -3.72834009	     -4.71615174	      6.68214399	      0.98312787	      0.93002041	      0.47481955	      7.80817885	      4.13576973	    -15.65881346	     14.54540900	     14.54540900	     12.43485463	     -3.31918320	     -3.34399558	     34.30198624	     -6.42450578	      2.24303096	     25.64678990	     25.64678990	      9.26436400	    -13.72587463	      9.28899742	     -8.93622555	      4.23143355	      2.92013188	     29.57005562	    -17.28322376	     -6.89519195	     83.92101059	     44.69851252	      0.00000000	      0.00000000	      1.18439645	     -7.31373369	      9.67042850	     19.83363668	     44.68782741	      0.00000000	      0.00000000
     43.92364286	     -3.81528788	     -4.66675343	      6.85508508	      0.98183977	      0.92972607	      0.47393354	      7.34104780	      4.08602370	    -15.78881417	     14.36260821	     14.36260821	     12.70190049	     -3.20023018	     -3.41851415	     34.23046245	     -5.94253989	      2.11934543	     22.18420219	     22.18420219	      9.43799566	    -11.57620326	      9.66421658	     -8.84414695	      4.21375240	      2.75262014	     31.71298041	    -17.06548398	     -7.00422000	     85.79656913	     44.65820902	      0.00000000	      0.00000000	     -0.04405395	     -7.32759759	      9.92150629	     19.48505169	     44.61013577	      0.00000000	      0.00000000
     43.93642857	     -3.87758767	     -4.61700387	      7.02697273	      0.98065165	      0.92949891	      0.47290314	      6.79646320	      4.03527017	    -15.97429952	     14.09952638	     14.09952638	     12.96700996	     -2.96276673	     -3.45853146	     34.19666735	     -5.50366277	      1.82069781	     19.30918555	     19.30918555	      9.49191804	     -9.51267814	     10.04608441	     -8.81705126	      4.22709275	      2.61584256	     33.73465527	    -16.83835583	     -7.04826552	     87.99623336	     44.60573378	      0.00000000	      0.00000000	     -1.20659537	     -7.29714678	     10.15078050	     19.42513506	     44.53293118	      0.00000000	      0.00000000
     43.94921429	     -3.93635179	     -4.60347422	      7.20176489	      0.97951151	      0.92928984	      0.47173558	      6.20522157	      4.02199252	    -16.19841519	     13.76334546	     13.76334546	     13.22009574	     -2.61077992	     -3.44744734	     34.29431152	     -5.12069996	      1.40878469	     17.18247855	     17.18247855	      9.44246788	     -7.78527539	     10.42950644	     -8.79965362	      4.30269514	      2.56178324	     35.58148054	    -16.68274209	     -7.08726390	     90.33195534	     44.55095702	      0.00000000	      0.00000000	     -2.34663600	     -7.26967837	     10.39913143	     19.66820017	     44.44767291	      0.00000000	      0.00000000
     43.96200000	     -3.99043260	     -4.58496973	      7.34395156	      0.97849643	      0.92913380	      0.47049282	      5.58393366	      4.00990014	    -16.40065806	     13.39185797	     13.39185797	     13.46303738	     -2.24500348	     -3.38342296	     34.44062554	     -4.77162639	      0.91190286	     15.74734215	     15.74734215	      9.28987182	     -6.56093604	     10.73734588	     -8.77194307	      4.35337343	      2.59399337	     37.26593079	    -16.54599580	     -7.14107704	     92.47115606	     44.50382740	      0.00000000	      0.00000000	     -3.42338489	     -7.25520148	     10.64781576	     20.05640790	     44.36438071	      0.00000000	      0.00000000
     43.97478571	     -4.04017767	     -4.58167880	      7.46640603	      0.97759998	      0.92898372	      0.46917290	      4.93425621	      4.01835853	    -16.58746095	     12.98507578	     12.98507578	     13.69672995	     -1.85628460	     -3.27957967	     34.63857045	     -4.47292473	      0.42450524	     15.02122788	     15.02122788	      9.02124064	     -5.92052800	     10.88485497	     -8.72214207	      4.42227172	      2.65622214	     38.85350065	    -16.39924318	     -7.19222456	     94.37104569	     44.46411381	      0.00000000	      0.00000000	     -4.41673600	     -7.23139571	     10.88606814	     20.46286730	     44.28823391	      0.00000000	      0.00000000
     43.98757143	     -4.10389141	     -4.58522181	      7.56062767	      0.97685787	      0.92877904	      0.46775340	      4.27087125	      4.03007337	    -16.79315346	     12.54572386	     12.54572386	     13.92803161	     -1.37870791	     -3.11577233	     34.88142570	     -4.22822502	      0.00675547	     14.98009232	     14.98009232	      8.64506935	     -5.79147932	     10.77586250	     -8.60815227	      4.49253370	      2.77162523	     40.26585488	    -16.27411683	     -7.21056547	     96.11667669	     44.43021313	      0.00000000	      0.00000000	     -5.34886137	     -7.22610420	     11.15444345	     20.99995177	     44.20966923	      0.00000000	      0.00000000
     44.00035714	     -4.10594432	     -4.62427855	      7.61091958	      0.97624334	      0.92853235	      0.46628699	      3.56526320	      4.08305296	    -16.98373640	     12.15461258	     12.15461258	     14.15914546	     -0.98395152	     -2.97645904	     35.04044451	     -4.08525797	     -0.27594467	     15.50812076	     15.50812076	      8.23617553	     -6.14722191	     10.53822055	     -8.55888536	      4.61309047	      2.97968988	     41.72493611	    -16.12665213	     -7.21840958	     97.47296121	     44.40377488	      0.00000000	      0.00000000	     -6.11617384	     -7.18280597	     11.33337701	     21.30076335	     44.15746227	      0.00000000	      0.00000000
     44.01314286	     -4.17021767	     -4.64644492	      7.59597796	      0.97606326	      0.92809941	      0.46483652	      2.88410929	      4.08923422	    -17.20085121	     11.79981866	     11.79981866	     14.78436434	     -0.11678232	     -2.08963656	     34.97740938	     -3.99657417	     -0.49557261	     16.05960986	     16.05960986	      6.88483363	     -6.93354346	      8.29181006	     -8.33436178	      4.65476339	      3.18376852	     42.56458130	    -16.16458614	     -7.05478029	     98.96996809	     44.59348750	      0.00000000	      0.00000000	     -7.41077968	     -7.91514408	     15.69689012	     23.40200610	     43.60183388	      0.00000000	      0.00000000
